<svg width="64" height="64" viewBox="0 0 64 64" xmlns="http://www.w3.org/2000/svg">
    <g transform="matrix(0.038214,0,0,0.056986,-9.75002,-37.340649)">
        <path d="M1171.778,944.882L1594.488,944.882L1594.488,1476.378L590.551,1476.378L590.551,944.882L1013.262,944.882L1013.262,874.016L1171.778,874.016L1171.778,944.882ZM1303.875,1122.047C1230.969,1122.047 1171.778,1161.74 1171.778,1210.63C1171.778,1259.52 1230.969,1299.213 1303.875,1299.213C1376.781,1299.213 1435.972,1259.52 1435.972,1210.63C1435.972,1161.74 1376.781,1122.047 1303.875,1122.047ZM881.165,1122.047C808.258,1122.047 749.068,1161.74 749.068,1210.63C749.068,1259.52 808.258,1299.213 881.165,1299.213C954.071,1299.213 1013.262,1259.52 1013.262,1210.63C1013.262,1161.74 954.071,1122.047 881.165,1122.047ZM537.712,1086.614L537.712,1334.646L379.196,1334.646L379.196,1086.614L537.712,1086.614ZM1805.843,1086.614L1805.843,1334.646L1647.327,1334.646L1647.327,1086.614L1805.843,1086.614Z" style="fill-opacity:0.6;"/>
    </g>
</svg>
