<svg width="64" height="64" viewBox="0 0 64 64" xmlns="http://www.w3.org/2000/svg">
    <g transform="matrix(0.054361,0,0,0.054361,-173.520348,-72.718071)">
        <path d="M3277.559,2037.402L3454.724,2037.402L3454.724,2096.457L3277.559,2096.457L3277.559,2037.402ZM3277.559,2155.512L3631.89,2155.512L3631.89,2214.567L3277.559,2214.567L3277.559,2155.512ZM3395.669,1860.236L3986.22,2155.512L4281.496,2155.512L4281.496,2214.567L3927.165,2214.567L3336.614,1919.291L3395.669,1860.236ZM3572.835,1594.488L3661.417,1594.488L3661.417,1683.071C3661.417,1683.071 3652.674,1742.796 3720.472,1742.126C3788.27,1741.456 3868.11,1653.543 3868.11,1653.543L3956.693,1653.543L3986.22,1742.126L3868.11,1742.126L3868.11,1801.181L4015.748,1801.181L4045.276,1860.236L3927.165,1860.236L3927.165,1919.291C3927.165,1919.291 4016.277,1918.255 4104.331,1919.291C4192.385,1920.328 4282.637,2007.042 4283.694,2101.113L4015.748,2096.457L3425.197,1801.181L3572.835,1594.488Z" style="fill-opacity:0.6;"/>
    </g>
</svg>
