<svg width="64" height="64" viewBox="0 0 64 64" xmlns="http://www.w3.org/2000/svg">
    <g transform="matrix(0.080277,0,0,0.080277,-82.962963,-109.037037)">
        <path d="M1151.575,2037.402C1151.575,1727.764 1402.961,1476.378 1712.598,1476.378L1712.598,1564.961C1451.851,1564.961 1240.157,1776.654 1240.157,2037.402L1151.575,2037.402ZM1328.74,2037.402C1328.74,1825.544 1500.741,1653.543 1712.598,1653.543L1712.598,1742.126C1549.631,1742.126 1417.323,1874.435 1417.323,2037.402L1328.74,2037.402ZM1505.906,2037.402C1505.906,1923.325 1598.522,1830.709 1712.598,1830.709L1712.598,1919.291C1647.412,1919.291 1594.488,1972.215 1594.488,2037.402L1505.906,2037.402Z" style="fill-opacity:0.6;"/>
    </g>
</svg>
